<svg width="1024" height="1024" xmlns="http://www.w3.org/2000/svg" class="icon">
 <defs>
  <style type="text/css"/>
 </defs>
 <g>
  <title>background</title>
  <rect fill="none" id="canvas_background" height="402" width="582" y="-1" x="-1"/>
 </g>
 <g>
  <title>Layer 1</title>
  <path fill="#0093ff" id="svg_1" d="m508.962,959.727l-123.87,-639.504l576.443,293.11l-215.027,67.719l134.916,171.485l-141.04,107.19l-109.177,-188.741l-122.245,188.741zm242.85,-78.491l46.316,-37.353l-124.814,-194.808l149.478,-40.745l-350.19,-169.102l67.702,372.739s74.345,-130.916 82.695,-130.916l128.813,200.185zm-688.479,-817.368l768.828,0l0,63.958l-768.828,0l0,-63.958z"/>
  <path fill="#0093ff" id="svg_2" d="m768.149,127.826l64.012,0l0,255.964l-64.012,0l0,-255.964zm-704.816,0l64.692,0l0,703.895l-64.692,0l0,-703.895zm0,703.895l317.813,0l0,63.919l-317.813,0l0,-63.919z"/>
 </g>
</svg>